<mxfile host="app.diagrams.net" modified="2023-03-14T12:53:42.921Z" agent="5.0 (Macintosh; Intel Mac OS X 10_15_7) AppleWebKit/537.36 (KHTML, like Gecko) Chrome/104.0.0.0 Safari/537.36" etag="ddajtANwTYp0V5XtNdGi" version="21.0.4" type="github">
  <diagram name="第 1 页" id="_yeJMhwyDleCnaa0IlxL">
    <mxGraphModel dx="1434" dy="771" grid="1" gridSize="10" guides="1" tooltips="1" connect="1" arrows="1" fold="1" page="1" pageScale="1" pageWidth="1169" pageHeight="1654" math="0" shadow="0">
      <root>
        <mxCell id="0" />
        <mxCell id="1" parent="0" />
        <mxCell id="Q3OfSgHD5-wVj7q53ZO--3" style="edgeStyle=orthogonalEdgeStyle;rounded=0;orthogonalLoop=1;jettySize=auto;html=1;" parent="1" source="Q3OfSgHD5-wVj7q53ZO--1" target="Q3OfSgHD5-wVj7q53ZO--2" edge="1">
          <mxGeometry relative="1" as="geometry" />
        </mxCell>
        <mxCell id="Q3OfSgHD5-wVj7q53ZO--1" value="主页面" style="rounded=0;whiteSpace=wrap;html=1;" parent="1" vertex="1">
          <mxGeometry x="280" y="200" width="120" height="60" as="geometry" />
        </mxCell>
        <mxCell id="Q3OfSgHD5-wVj7q53ZO--2" value="二级页面" style="rounded=0;whiteSpace=wrap;html=1;" parent="1" vertex="1">
          <mxGeometry x="600" y="200" width="120" height="60" as="geometry" />
        </mxCell>
        <mxCell id="Q3OfSgHD5-wVj7q53ZO--4" value="主页面全量渲染，不希望显示的ui进行样式隐藏，&lt;br&gt;以获取完整状态的form" style="text;html=1;align=center;verticalAlign=middle;resizable=0;points=[];autosize=1;strokeColor=none;fillColor=none;" parent="1" vertex="1">
          <mxGeometry x="200" y="320" width="280" height="40" as="geometry" />
        </mxCell>
        <mxCell id="Q3OfSgHD5-wVj7q53ZO--5" value="" style="strokeWidth=2;html=1;shape=mxgraph.flowchart.annotation_2;align=left;labelPosition=right;pointerEvents=1;rotation=90;" parent="1" vertex="1">
          <mxGeometry x="315" y="240" width="50" height="100" as="geometry" />
        </mxCell>
        <mxCell id="Q3OfSgHD5-wVj7q53ZO--20" style="edgeStyle=orthogonalEdgeStyle;rounded=0;orthogonalLoop=1;jettySize=auto;html=1;entryX=0.5;entryY=0;entryDx=0;entryDy=0;" parent="1" source="Q3OfSgHD5-wVj7q53ZO--7" target="Q3OfSgHD5-wVj7q53ZO--19" edge="1">
          <mxGeometry relative="1" as="geometry" />
        </mxCell>
        <mxCell id="Q3OfSgHD5-wVj7q53ZO--28" style="edgeStyle=orthogonalEdgeStyle;rounded=0;orthogonalLoop=1;jettySize=auto;html=1;entryX=0;entryY=0.5;entryDx=0;entryDy=0;" parent="1" source="Q3OfSgHD5-wVj7q53ZO--7" target="Q3OfSgHD5-wVj7q53ZO--27" edge="1">
          <mxGeometry relative="1" as="geometry" />
        </mxCell>
        <mxCell id="Q3OfSgHD5-wVj7q53ZO--7" value="使用&amp;lt;RecursionField schema/&amp;gt;进行渲染&lt;br&gt;这样将与主页面共用form，所有联动关系不会丢失" style="text;html=1;align=center;verticalAlign=middle;resizable=0;points=[];autosize=1;strokeColor=none;fillColor=none;" parent="1" vertex="1">
          <mxGeometry x="510" y="320" width="290" height="40" as="geometry" />
        </mxCell>
        <mxCell id="Q3OfSgHD5-wVj7q53ZO--8" value="" style="strokeWidth=2;html=1;shape=mxgraph.flowchart.annotation_2;align=left;labelPosition=right;pointerEvents=1;rotation=90;" parent="1" vertex="1">
          <mxGeometry x="635" y="240" width="50" height="100" as="geometry" />
        </mxCell>
        <mxCell id="Q3OfSgHD5-wVj7q53ZO--9" value="这时二级页面将丢失与主页面的联动关系" style="text;html=1;align=center;verticalAlign=middle;resizable=0;points=[];autosize=1;strokeColor=none;fillColor=none;" parent="1" vertex="1">
          <mxGeometry x="375" y="760" width="240" height="30" as="geometry" />
        </mxCell>
        <mxCell id="Q3OfSgHD5-wVj7q53ZO--12" value="二级页面字段依赖主页面，如果完全与主页面失去联动将无法实现" style="text;html=1;align=center;verticalAlign=middle;resizable=0;points=[];autosize=1;strokeColor=none;fillColor=none;" parent="1" vertex="1">
          <mxGeometry x="320" y="797" width="370" height="30" as="geometry" />
        </mxCell>
        <mxCell id="Q3OfSgHD5-wVj7q53ZO--13" value="二级页面渲染部分schema也要做依赖分析，保证有依赖的schema完整截取下来" style="text;html=1;align=center;verticalAlign=middle;resizable=0;points=[];autosize=1;strokeColor=none;fillColor=none;" parent="1" vertex="1">
          <mxGeometry x="1140" y="330" width="440" height="30" as="geometry" />
        </mxCell>
        <mxCell id="Q3OfSgHD5-wVj7q53ZO--15" style="edgeStyle=orthogonalEdgeStyle;rounded=0;orthogonalLoop=1;jettySize=auto;html=1;" parent="1" source="Q3OfSgHD5-wVj7q53ZO--14" edge="1">
          <mxGeometry relative="1" as="geometry">
            <mxPoint x="1365" y="335" as="targetPoint" />
          </mxGeometry>
        </mxCell>
        <mxCell id="Q3OfSgHD5-wVj7q53ZO--14" value="使用无ui创建form" style="text;html=1;align=center;verticalAlign=middle;resizable=0;points=[];autosize=1;strokeColor=none;fillColor=none;" parent="1" vertex="1">
          <mxGeometry x="1305" y="260" width="120" height="30" as="geometry" />
        </mxCell>
        <mxCell id="Q3OfSgHD5-wVj7q53ZO--22" style="edgeStyle=orthogonalEdgeStyle;rounded=0;orthogonalLoop=1;jettySize=auto;html=1;entryX=0.482;entryY=1.05;entryDx=0;entryDy=0;entryPerimeter=0;" parent="1" source="Q3OfSgHD5-wVj7q53ZO--19" target="Q3OfSgHD5-wVj7q53ZO--4" edge="1">
          <mxGeometry relative="1" as="geometry" />
        </mxCell>
        <mxCell id="Q3OfSgHD5-wVj7q53ZO--24" style="edgeStyle=orthogonalEdgeStyle;rounded=0;orthogonalLoop=1;jettySize=auto;html=1;entryX=0.25;entryY=1.075;entryDx=0;entryDy=0;entryPerimeter=0;" parent="1" source="Q3OfSgHD5-wVj7q53ZO--19" target="Q3OfSgHD5-wVj7q53ZO--4" edge="1">
          <mxGeometry relative="1" as="geometry">
            <mxPoint x="730" y="550" as="targetPoint" />
            <Array as="points">
              <mxPoint x="750" y="450" />
              <mxPoint x="750" y="500" />
              <mxPoint x="270" y="500" />
            </Array>
          </mxGeometry>
        </mxCell>
        <mxCell id="Q3OfSgHD5-wVj7q53ZO--19" value="操作二级页面" style="rhombus;whiteSpace=wrap;html=1;" parent="1" vertex="1">
          <mxGeometry x="615" y="410" width="80" height="80" as="geometry" />
        </mxCell>
        <mxCell id="Q3OfSgHD5-wVj7q53ZO--25" value="保存&lt;br&gt;直接返回主页面即可" style="text;html=1;align=center;verticalAlign=middle;resizable=0;points=[];autosize=1;strokeColor=none;fillColor=none;" parent="1" vertex="1">
          <mxGeometry x="400" y="410" width="130" height="40" as="geometry" />
        </mxCell>
        <mxCell id="Q3OfSgHD5-wVj7q53ZO--29" style="edgeStyle=orthogonalEdgeStyle;rounded=0;orthogonalLoop=1;jettySize=auto;html=1;entryX=0.5;entryY=1;entryDx=0;entryDy=0;dashed=1;" parent="1" source="Q3OfSgHD5-wVj7q53ZO--26" target="Q3OfSgHD5-wVj7q53ZO--27" edge="1">
          <mxGeometry relative="1" as="geometry" />
        </mxCell>
        <mxCell id="Q3OfSgHD5-wVj7q53ZO--26" value="取消&lt;br&gt;根据快照回退值&lt;br&gt;主页面将根据回退的值重新计算联动" style="text;html=1;align=center;verticalAlign=middle;resizable=0;points=[];autosize=1;strokeColor=none;fillColor=none;" parent="1" vertex="1">
          <mxGeometry x="355" y="500" width="220" height="60" as="geometry" />
        </mxCell>
        <mxCell id="Q3OfSgHD5-wVj7q53ZO--27" value="二级页面字段值进行快照" style="shape=process;whiteSpace=wrap;html=1;backgroundOutline=1;" parent="1" vertex="1">
          <mxGeometry x="930" y="310" width="120" height="60" as="geometry" />
        </mxCell>
        <mxCell id="51cP0dPaPmxgfphvcYpN-8" style="edgeStyle=orthogonalEdgeStyle;rounded=0;orthogonalLoop=1;jettySize=auto;html=1;" edge="1" parent="1" source="51cP0dPaPmxgfphvcYpN-6" target="51cP0dPaPmxgfphvcYpN-7">
          <mxGeometry relative="1" as="geometry" />
        </mxCell>
        <mxCell id="51cP0dPaPmxgfphvcYpN-6" value="" style="whiteSpace=wrap;html=1;aspect=fixed;" vertex="1" parent="1">
          <mxGeometry x="770" y="630" width="180" height="180" as="geometry" />
        </mxCell>
        <mxCell id="51cP0dPaPmxgfphvcYpN-7" value="" style="whiteSpace=wrap;html=1;aspect=fixed;" vertex="1" parent="1">
          <mxGeometry x="1080" y="680" width="80" height="80" as="geometry" />
        </mxCell>
      </root>
    </mxGraphModel>
  </diagram>
</mxfile>
